<?xml version="1.0" ?><!DOCTYPE svg  PUBLIC '-//W3C//DTD SVG 1.1//EN'  'http://www.w3.org/Graphics/SVG/1.1/DTD/svg11.dtd'><svg height="2048px" style="shape-rendering:geometricPrecision; text-rendering:geometricPrecision; image-rendering:optimizeQuality; fill-rule:evenodd; clip-rule:evenodd" viewBox="0 0 2048 2048" width="2048px" xml:space="preserve" xmlns="http://www.w3.org/2000/svg" xmlns:xlink="http://www.w3.org/1999/xlink"><defs><style type="text/css">
   <![CDATA[
    .fil2 {fill:none}
    .fil1 {fill:#6098CB}
    .fil0 {fill:#333333;fill-rule:nonzero}
   ]]>
  </style></defs><g id="Layer_x0020_1"><g id="_505321608"><path class="fil0" d="M1710.49 1776l-294.679 0 -16.0004 0 0 -16.0004 0 -638.578c0,-34.3276 -4.61221,-63.0827 -18.9921,-82.3028 -13.8,-18.4441 -38.0303,-29.2134 -78.1418,-29.2134 -129.835,0 -162.302,98.4166 -166.487,113.362l0 636.732 0 15.9992 -16.0004 0.0011811 -294.629 0 -16.0004 0 0 -16.0004 0 -1033.63 0 -16.0004 16.0004 0 294.629 0 16.0004 0 0 16.0004 0 68.3634c21.854,-14.1957 50.8973,-30.6591 86.3044,-45.2008 51.7843,-21.2658 117.108,-38.4319 193.317,-38.4319 60.7843,0 160.807,21.6886 231.193,117.934 46.2508,63.2434 79.4871,158.594 79.4871,301.016l0 629.947 0 16.0004 -16.0004 0zm-278.679 -32.0008l262.679 0 0 -613.947c0,-134.776 -30.6225,-223.871 -73.2367,-282.142 -62.55,-85.5331 -151.432,-104.808 -205.442,-104.808 -71.5997,0 -132.778,16.0488 -181.192,35.9303 -48.5162,19.9252 -84.2953,43.689 -104.93,59.0563l-25.5 18.9921 0 -31.8047 0 -82.9052 -262.628 0 0 1001.63 262.628 0 0 -622.577 0.500788 -3.75c0.0980316,-0.399213 32.413,-139.767 197.987,-139.767 51.4205,0 83.7591,15.515 103.642,42.0898 19.3028,25.7988 25.4929,60.8056 25.4929,101.427l0 622.577z" id="_505322112"/><path class="fil0" d="M485.321 581.524c-42.6095,0 -81.2469,-17.3551 -109.227,-45.4843 -27.9024,-28.0488 -45.1701,-66.776 -45.1701,-109.644 0,-42.6177 17.2961,-81.2138 45.2363,-109.154 27.9496,-27.9496 66.5575,-45.2433 109.161,-45.2433l0.125197 0.0625985c42.6237,0.408662 81.1772,17.8536 109.041,45.717 27.9414,27.9425 45.2292,66.3591 45.2292,108.618 0,42.874 -17.2595,81.606 -45.1618,109.657 -27.9732,28.1209 -66.6048,45.4713 -109.233,45.4713zm-86.602 -67.9843c22.1362,22.2532 52.767,35.9835 86.602,35.9835 33.8528,0 64.4788,-13.7244 86.6079,-35.9705 22.1091,-22.2272 35.7862,-53.0067 35.7862,-87.1572 0,-33.4252 -13.7043,-63.8422 -35.8536,-85.9926 -22.2,-22.2 -52.8012,-36.1063 -86.5406,-36.4642l0 0.0602363c-33.7725,0 -64.3784,13.7102 -86.5359,35.8677 -22.1492,22.1492 -35.8607,52.7445 -35.8607,86.5288 0,34.1433 13.6831,64.917 35.7945,87.1442z" id="_505321656"/><path class="fil0" d="M633.132 1776l-295.622 0 -16.0004 0 0 -16.0004 0 -1033.63 0 -16.0004 16.0004 0 295.622 0 16.0004 0 0 16.0004 0 1033.63 0 16.0004 -16.0004 0zm-279.621 -32.0008l263.621 0 0 -1001.63 -263.621 0 0 1001.63z" id="_505321992"/></g><path class="fil1" d="M398.719 513.54c22.1362,22.2532 52.767,35.9835 86.602,35.9835 33.8528,0 64.4788,-13.7244 86.6079,-35.9705 22.1091,-22.2272 35.7862,-53.0067 35.7862,-87.1572 0,-33.4252 -13.7043,-63.8422 -35.8536,-85.9926 -22.2,-22.2 -52.8012,-36.1063 -86.5406,-36.4642l0 0.0602363c-33.7725,0 -64.3784,13.7102 -86.5359,35.8677 -22.1492,22.1492 -35.8607,52.7445 -35.8607,86.5288 0,34.1433 13.6831,64.917 35.7945,87.1442z"/><polygon class="fil1" points="617.131,742.372 353.51,742.372 353.51,1744 617.131,1744 "/><path class="fil1" d="M1129.69 838.09l-25.5 18.9921 0 -31.8047 0 -82.9052 -262.628 0 0 1001.63 262.628 0 0 -622.577 0.500788 -3.75c0.0980316,-0.399213 32.413,-139.767 197.987,-139.767 51.4205,0 83.7591,15.515 103.642,42.0898 19.3028,25.7988 25.4929,60.8056 25.4929,101.427l0 622.577 262.679 0 0 -613.947c0,-134.776 -30.6225,-223.871 -73.2367,-282.142 -62.55,-85.5331 -151.432,-104.808 -205.442,-104.808 -71.5997,0 -132.778,16.0488 -181.192,35.9303 -48.5162,19.9252 -84.2953,43.689 -104.93,59.0563z"/></g><rect class="fil2" height="2048" width="2048"/></svg>